<svg xmlns="http://www.w3.org/2000/svg" version="1.1" xmlns:xlink="http://www.w3.org/1999/xlink" viewBox="0 0 56 56">
  <defs>
    <style>
      .cls-1 {
        fill: url(#linear-gradient);
      }

      .cls-1, .cls-2, .cls-3, .cls-4, .cls-5 {
        stroke-width: 0px;
      }

      .cls-2 {
        fill: url(#linear-gradient-5);
      }

      .cls-3 {
        fill: url(#linear-gradient-2);
      }

      .cls-4 {
        fill: url(#linear-gradient-3);
      }

      .cls-5 {
        fill: url(#linear-gradient-4);
      }
    </style>
    <linearGradient id="linear-gradient" x1="13" y1="45.3" x2="57.3" y2="24.2" gradientTransform="translate(0 58) scale(1 -1)" gradientUnits="userSpaceOnUse">
      <stop offset="0" stop-color="#ffc328"/>
      <stop offset="1" stop-color="#e63700"/>
    </linearGradient>
    <linearGradient id="linear-gradient-2" x1="2.7" y1="23.7" x2="47" y2="2.6" gradientTransform="translate(0 58) scale(1 -1)" gradientUnits="userSpaceOnUse">
      <stop offset="0" stop-color="#ffc328"/>
      <stop offset="1" stop-color="#e63700"/>
    </linearGradient>
    <linearGradient id="linear-gradient-3" x1="-14.8" y1="68.7" x2="56.8" y2="34.5" gradientTransform="translate(0 58) scale(1 -1)" gradientUnits="userSpaceOnUse">
      <stop offset="0" stop-color="#ffc328"/>
      <stop offset="1" stop-color="#e63700"/>
    </linearGradient>
    <linearGradient id="linear-gradient-4" x1="6.7" y1="32" x2="50.9" y2="10.8" xlink:href="#linear-gradient-3"/>
    <linearGradient id="linear-gradient-5" x1="2.7" y1="23.7" x2="47" y2="2.6" gradientTransform="translate(0 58) scale(1 -1)" gradientUnits="userSpaceOnUse">
      <stop offset="0" stop-color="#ffc328"/>
      <stop offset="1" stop-color="#e63700"/>
    </linearGradient>
  </defs>
  <path class="cls-1" d="M2.8,27.3h6.4c10,0,18.1-8.1,18.1-18.1V0c-1,.1-1.9.4-2.7.9L6.3,11.4c-2.2,1.2-3.5,3.6-3.5,6v9.8Z"/>
  <path class="cls-3" d="M2.8,28.8v9.7c0,2.5,1.3,4.8,3.5,6l18.2,10.5c.8.5,1.8.8,2.7.9v-9.1c0-10-8.1-18.1-18.1-18.1H2.8Z"/>
  <path class="cls-4" d="M53.2,27.3v-9.8c0-2.5-1.3-4.8-3.5-6L31.5.9c-.8-.5-1.8-.8-2.7-.9v9.2c0,10,8.1,18.1,18.1,18.1h6.4Z"/>
  <path class="cls-5" d="M28.8,46.9v9.1c1-.1,1.9-.4,2.7-.9l18.2-10.5c2.2-1.2,3.5-3.6,3.5-6v-9.7h-6.4c-10,0-18.1,8.1-18.1,18.1Z"/>
  <path class="cls-2" d="M2.8,28.8v9.7c0,2.5,1.3,4.8,3.5,6l18.2,10.5c.8.5,1.8.8,2.7.9v-9.1c0-10-8.1-18.1-18.1-18.1H2.8Z"/>
</svg>