<svg xmlns="http://www.w3.org/2000/svg" version="1.1" xmlns:xlink="http://www.w3.org/1999/xlink" viewBox="0 0 36 36">
  <defs>
    <style>
      .cls-1 {
        fill: url(#linear-gradient-3);
      }
      .cls-1, .cls-2, .cls-3 {
        fill-rule: evenodd;
        stroke-width: 0px;
      }
      .cls-2 {
        fill: url(#linear-gradient);
      }
      .cls-3 {
        fill: url(#linear-gradient-2);
      }
    </style>
    <linearGradient id="linear-gradient" x1="7" y1="31.4" x2="14.9" y2="9.1" gradientTransform="translate(0 37) scale(1 -1)" gradientUnits="userSpaceOnUse">
      <stop offset="0" stop-color="#ffc328"/>
      <stop offset="1" stop-color="#e63700"/>
    </linearGradient>
    <linearGradient id="linear-gradient-2" x1="30" y1="24" x2="32.4" y2="15.5" gradientTransform="translate(0 37) scale(1 -1)" gradientUnits="userSpaceOnUse">
      <stop offset="0" stop-color="#ffc328"/>
      <stop offset="1" stop-color="#e63700"/>
    </linearGradient>
    <linearGradient id="linear-gradient-3" x1="26.5" y1="17.1" x2="27.2" y2="14.4" gradientTransform="translate(0 37) scale(1 -1)" gradientUnits="userSpaceOnUse">
      <stop offset="0" stop-color="#ffc328"/>
      <stop offset="1" stop-color="#e63700"/>
    </linearGradient>
  </defs>
  <path class="cls-2" d="M14.2,4.4c0,0,.1,0,.2,0v5.3c0,0-.1,0-.2,0-4.7,0-8.5,3.7-8.5,8.3s3.8,8.3,8.5,8.3.1,0,.2,0v5.3c0,0-.1,0-.2,0C6.6,31.6.4,25.5.4,18S6.6,4.4,14.2,4.4ZM14.4,26.3c4.6-.1,8.3-3.8,8.3-8.3s-3.7-8.2-8.3-8.3v16.7Z"/>
  <path class="cls-3" d="M32.9,18l2.2-2.2c.7-.6.7-1.7,0-2.3-.7-.6-1.8-.6-2.4,0l-2.2,2.2-2.2-2.2c-.7-.6-1.8-.6-2.4,0-.7.6-.7,1.7,0,2.3l6.9,6.7c.7.6,1.8.6,2.4,0,.7-.6.7-1.7,0-2.3l-2.2-2.1Z"/>
  <path class="cls-1" d="M26.9,19.8c-.9,0-1.6.7-1.6,1.6s.7,1.6,1.6,1.6,1.6-.7,1.6-1.6-.7-1.6-1.6-1.6"/>
</svg>