<svg id="machine-learning" xmlns="http://www.w3.org/2000/svg" version="1.1" xmlns:xlink="http://www.w3.org/1999/xlink" viewBox="0 0 523 523">
  <defs>
    <style>
      .cls-1 {
        fill: url(#linear-gradient-12);
      }

      .cls-1, .cls-2, .cls-3, .cls-4, .cls-5, .cls-6, .cls-7, .cls-8, .cls-9, .cls-10, .cls-11, .cls-12, .cls-13, .cls-14, .cls-15, .cls-16, .cls-17, .cls-18 {
        stroke-width: 0px;
      }

      .cls-2 {
        fill: url(#linear-gradient-17);
      }

      .cls-3 {
        fill: #000;
      }

      .cls-4 {
        fill: url(#linear-gradient-8);
      }

      .cls-4, .cls-19 {
        fill-opacity: .1;
      }

      .cls-5 {
        fill: url(#linear-gradient-6);
      }

      .cls-19 {
        fill: url(#linear-gradient);
      }

      .cls-19, .cls-20 {
        stroke: #fff;
        stroke-width: 4px;
      }

      .cls-21 {
        mask: url(#mask-2);
      }

      .cls-6 {
        fill: url(#linear-gradient-15);
      }

      .cls-7 {
        fill: url(#linear-gradient-11);
      }

      .cls-8 {
        fill: url(#linear-gradient-5);
      }

      .cls-22 {
        opacity: .3;
      }

      .cls-9 {
        fill: url(#linear-gradient-13);
      }

      .cls-10 {
        fill: url(#linear-gradient-16);
      }

      .cls-11 {
        fill: url(#linear-gradient-14);
      }

      .cls-12 {
        fill: url(#linear-gradient-2);
        fill-opacity: 0;
      }

      .cls-13 {
        fill: url(#linear-gradient-7);
      }

      .cls-14 {
        fill: url(#linear-gradient-3);
      }

      .cls-15 {
        fill: url(#linear-gradient-9);
      }

      .cls-16 {
        fill: #fff;
      }

      .cls-23 {
        mask: url(#mask-1);
      }

      .cls-24 {
        mask: url(#mask);
      }

      .cls-17 {
        fill: url(#linear-gradient-10);
      }

      .cls-20 {
        fill: none;
      }

      .cls-18 {
        fill: url(#linear-gradient-4);
      }
    </style>
    <linearGradient id="linear-gradient" x1="249.8" y1="262.4" x2="635.4" y2="265.8" gradientTransform="translate(0 524) scale(1 -1)" gradientUnits="userSpaceOnUse">
      <stop offset="0" stop-color="#ffc328"/>
      <stop offset="1" stop-color="#e63700"/>
    </linearGradient>
    <linearGradient id="linear-gradient-2" x1="229.4" y1="234.7" x2="102.2" y2="450.7" gradientTransform="translate(0 524) scale(1 -1)" gradientUnits="userSpaceOnUse">
      <stop offset="0" stop-color="#ffc328"/>
      <stop offset="1" stop-color="#e63700"/>
    </linearGradient>
    <mask id="mask" x="30" y="71.8" width="306.8" height="276.5" maskUnits="userSpaceOnUse">
      <g id="path-2-outside-1_139_2049" data-name="path-2-outside-1 139 2049">
        <rect class="cls-16" x="30" y="71.8" width="306.8" height="276.5"/>
        <path class="cls-3" d="M116.6,345.2c-14.6-25.4-22.4-54.1-22.4-83.4,0-29.3,7.6-58.1,22.1-83.5,14.6-25.4,35.5-46.6,60.8-61.3,25.3-14.8,54-22.7,83.3-22.9l1.2,167.4-145,83.7Z"/>
      </g>
    </mask>
    <linearGradient id="linear-gradient-3" x1="169.3" y1="313.9" x2="200.9" y2="298.8" gradientTransform="translate(0 524) scale(1 -1)" gradientUnits="userSpaceOnUse">
      <stop offset="0" stop-color="#ffc328"/>
      <stop offset="1" stop-color="#e63700"/>
    </linearGradient>
    <linearGradient id="linear-gradient-4" x1="162" y1="298.5" x2="193.6" y2="283.4" gradientTransform="translate(0 524) scale(1 -1)" gradientUnits="userSpaceOnUse">
      <stop offset="0" stop-color="#ffc328"/>
      <stop offset="1" stop-color="#e63700"/>
    </linearGradient>
    <linearGradient id="linear-gradient-5" x1="172.1" y1="319.8" x2="203.7" y2="304.7" gradientTransform="translate(0 524) scale(1 -1)" gradientUnits="userSpaceOnUse">
      <stop offset="0" stop-color="#ffc328"/>
      <stop offset="1" stop-color="#e63700"/>
    </linearGradient>
    <linearGradient id="linear-gradient-6" x1="164.8" y1="304.4" x2="196.4" y2="289.3" gradientTransform="translate(0 524) scale(1 -1)" gradientUnits="userSpaceOnUse">
      <stop offset="0" stop-color="#ffc328"/>
      <stop offset="1" stop-color="#e63700"/>
    </linearGradient>
    <linearGradient id="linear-gradient-7" x1="162" y1="298.5" x2="193.6" y2="283.4" gradientTransform="translate(0 524) scale(1 -1)" gradientUnits="userSpaceOnUse">
      <stop offset="0" stop-color="#ffc328"/>
      <stop offset="1" stop-color="#e63700"/>
    </linearGradient>
    <linearGradient id="linear-gradient-8" x1="300.9" y1="248.9" x2="177.5" y2="30.8" gradientTransform="translate(0 524) scale(1 -1)" gradientUnits="userSpaceOnUse">
      <stop offset="0" stop-color="#ffc328"/>
      <stop offset="1" stop-color="#e63700"/>
    </linearGradient>
    <mask id="mask-1" x="100.8" y="215.7" width="309.4" height="278" maskUnits="userSpaceOnUse">
      <g id="path-4-outside-2_139_2049" data-name="path-4-outside-2 139 2049">
        <rect class="cls-16" x="100.8" y="215.7" width="309.4" height="278"/>
        <path class="cls-3" d="M405.8,346.3c-14.9,25.3-36.1,46.2-61.6,60.7-25.5,14.5-54.3,22-83.6,21.9-29.3-.2-58.1-8-83.4-22.8-25.3-14.8-46.3-35.9-60.9-61.3l145.2-83.3,144.3,84.8Z"/>
      </g>
    </mask>
    <linearGradient id="linear-gradient-9" x1="238.7" y1="194.8" x2="248.5" y2="160.9" gradientTransform="translate(0 524) scale(1 -1)" gradientUnits="userSpaceOnUse">
      <stop offset="0" stop-color="#ffc328"/>
      <stop offset="1" stop-color="#e63700"/>
    </linearGradient>
    <linearGradient id="linear-gradient-10" x1="250.6" y1="198.3" x2="260.4" y2="164.3" gradientTransform="translate(0 524) scale(1 -1)" gradientUnits="userSpaceOnUse">
      <stop offset="0" stop-color="#ffc328"/>
      <stop offset="1" stop-color="#e63700"/>
    </linearGradient>
    <linearGradient id="linear-gradient-11" x1="247.3" y1="197.3" x2="257.1" y2="163.3" gradientTransform="translate(0 524) scale(1 -1)" gradientUnits="userSpaceOnUse">
      <stop offset="0" stop-color="#ffc328"/>
      <stop offset="1" stop-color="#e63700"/>
    </linearGradient>
    <linearGradient id="linear-gradient-12" x1="252.6" y1="198.9" x2="262.4" y2="164.9" gradientTransform="translate(0 524) scale(1 -1)" gradientUnits="userSpaceOnUse">
      <stop offset="0" stop-color="#ffc328"/>
      <stop offset="1" stop-color="#e63700"/>
    </linearGradient>
    <linearGradient id="linear-gradient-13" x1="274.4" y1="205.1" x2="284.2" y2="171.2" gradientTransform="translate(0 524) scale(1 -1)" gradientUnits="userSpaceOnUse">
      <stop offset="0" stop-color="#ffc328"/>
      <stop offset="1" stop-color="#e63700"/>
    </linearGradient>
    <linearGradient id="linear-gradient-14" x1="262.5" y1="201.7" x2="272.3" y2="167.7" gradientTransform="translate(0 524) scale(1 -1)" gradientUnits="userSpaceOnUse">
      <stop offset="0" stop-color="#ffc328"/>
      <stop offset="1" stop-color="#e63700"/>
    </linearGradient>
    <linearGradient id="linear-gradient-15" x1="265.8" y1="202.6" x2="275.6" y2="168.7" gradientTransform="translate(0 524) scale(1 -1)" gradientUnits="userSpaceOnUse">
      <stop offset="0" stop-color="#ffc328"/>
      <stop offset="1" stop-color="#e63700"/>
    </linearGradient>
    <linearGradient id="linear-gradient-16" x1="260.4" y1="201.1" x2="270.2" y2="167.1" gradientTransform="translate(0 524) scale(1 -1)" gradientUnits="userSpaceOnUse">
      <stop offset="0" stop-color="#ffc328"/>
      <stop offset="1" stop-color="#e63700"/>
    </linearGradient>
    <linearGradient id="linear-gradient-17" x1="253.5" y1="303.9" x2="504.1" y2="306.2" gradientTransform="translate(0 524) scale(1 -1)" gradientUnits="userSpaceOnUse">
      <stop offset="0" stop-color="#ffc328"/>
      <stop offset="1" stop-color="#e63700"/>
    </linearGradient>
    <mask id="mask-2" x="259.1" y="92.1" width="172" height="256" maskUnits="userSpaceOnUse">
      <g id="path-6-outside-3_139_2049" data-name="path-6-outside-3 139 2049">
        <rect class="cls-16" x="259.1" y="92.1" width="172" height="256"/>
        <path class="cls-3" d="M261.5,94.1c29.3,0,58.1,7.7,83.5,22.3,25.4,14.6,46.5,35.7,61.2,61,14.7,25.4,22.5,54.1,22.6,83.4s-7.5,58.1-22,83.6l-145.3-83V94.1Z"/>
      </g>
    </mask>
  </defs>
  <circle id="outer-ring" class="cls-19" cx="261.5" cy="261.5" r="259.5"/>
  <path id="dl-slice" class="cls-12" d="M116.6,345.2c-14.6-25.4-22.4-54.1-22.4-83.4,0-29.3,7.6-58.1,22.1-83.5,14.6-25.4,35.5-46.6,60.8-61.3,25.3-14.8,54-22.7,83.3-22.9l1.2,167.4-145,83.7Z"/>
  <g class="cls-24">
    <path id="dl-outline" class="cls-20" d="M116.6,345.2c-14.6-25.4-22.4-54.1-22.4-83.4,0-29.3,7.6-58.1,22.1-83.5,14.6-25.4,35.5-46.6,60.8-61.3,25.3-14.8,54-22.7,83.3-22.9l1.2,167.4-145,83.7Z"/>
  </g>
  <g id="dl-logo" class="cls-22">
    <path class="cls-14" d="M162,220.5h4.5c7.1,0,12.9-5.8,12.9-12.9v-6.6c-.7,0-1.3.3-1.9.6l-13,7.5c-1.5.9-2.5,2.5-2.5,4.3v7Z"/>
    <path class="cls-18" d="M162,221.6v6.9c0,1.8,1,3.4,2.5,4.3l13,7.5c.6.3,1.3.6,1.9.6v-6.5c0-7.1-5.8-12.9-12.9-12.9h-4.5Z"/>
    <path class="cls-8" d="M198,220.5v-7c0-1.8-1-3.4-2.5-4.3l-13-7.5c-.6-.3-1.3-.6-1.9-.6v6.6c0,7.1,5.8,12.9,12.9,12.9h4.5Z"/>
    <path class="cls-5" d="M180.5,234.5v6.5c.7,0,1.3-.3,1.9-.6l13-7.5c1.5-.9,2.5-2.5,2.5-4.3v-6.9h-4.5c-7.1,0-12.9,5.8-12.9,12.9Z"/>
    <path class="cls-13" d="M162,221.6v6.9c0,1.8,1,3.4,2.5,4.3l13,7.5c.6.3,1.3.6,1.9.6v-6.5c0-7.1-5.8-12.9-12.9-12.9h-4.5Z"/>
  </g>
  <path id="gai-slice" class="cls-4" d="M405.8,346.3c-14.9,25.3-36.1,46.2-61.6,60.7-25.5,14.5-54.3,22-83.6,21.9-29.3-.2-58.1-8-83.4-22.8-25.3-14.8-46.3-35.9-60.9-61.3l145.2-83.3,144.3,84.8Z"/>
  <g class="cls-23">
    <path id="gai-outline" class="cls-20" d="M405.8,346.3c-14.9,25.3-36.1,46.2-61.6,60.7-25.5,14.5-54.3,22-83.6,21.9-29.3-.2-58.1-8-83.4-22.8-25.3-14.8-46.3-35.9-60.9-61.3l145.2-83.3,144.3,84.8Z"/>
  </g>
  <g id="gai-logo" class="cls-22">
    <path class="cls-15" d="M242,363l10-10-10-10v20Z"/>
    <path class="cls-17" d="M252,353l10,10v-20l-10,10Z"/>
    <path class="cls-7" d="M252,333l-10,10h20l-10-10Z"/>
    <path class="cls-1" d="M242,323l10,10,10-10h-20Z"/>
    <path class="cls-9" d="M282,323l-10,10,10,10v-20Z"/>
    <path class="cls-11" d="M272,333l-10-10v20l10-10Z"/>
    <path class="cls-6" d="M262,343l10,10,10-10h-20Z"/>
    <path class="cls-10" d="M282,363l-10-10-10,10h20Z"/>
  </g>
  <path id="ml-slice" class="cls-2" d="M261.5,94.1c29.3,0,58.1,7.7,83.5,22.3,25.4,14.6,46.5,35.7,61.2,61,14.7,25.4,22.5,54.1,22.6,83.4s-7.5,58.1-22,83.6l-145.3-83V94.1Z"/>
  <g class="cls-21">
    <path id="ml-outline" class="cls-20" d="M261.5,94.1c29.3,0,58.1,7.7,83.5,22.3,25.4,14.6,46.5,35.7,61.2,61,14.7,25.4,22.5,54.1,22.6,83.4s-7.5,58.1-22,83.6l-145.3-83V94.1Z"/>
  </g>
  <g id="ml-logo" class="cls-22">
    <path class="cls-16" d="M330.3,227.7v-26.7c-7.4,0-13.3,6-13.3,13.3s6,13.3,13.3,13.3Z"/>
    <path class="cls-16" d="M343.7,227.7h-26.7c0,7.4,6,13.3,13.3,13.3s13.3-6,13.3-13.3Z"/>
    <path class="cls-16" d="M343.7,214.3v26.7c7.4,0,13.3-6,13.3-13.3s-6-13.3-13.3-13.3Z"/>
    <path class="cls-16" d="M330.3,214.3h26.7c0-7.4-6-13.3-13.3-13.3s-13.3,6-13.3,13.3Z"/>
  </g>
</svg>