<svg viewBox="0 0 56 56" fill="none" xmlns="http://www.w3.org/2000/svg">
	<path d="M0 56L14.0001 42.0002L0 28.0001V56Z" fill="url(#paint0_linear_4_423)"/>
	<path d="M14.0001 42.0002L28.0001 56V28.0001L14.0001 42.0002Z" fill="url(#paint1_linear_4_423)"/>
	<path d="M14.0001 14.0001L0 28.0001H28.0001L14.0001 14.0001Z" fill="url(#paint2_linear_4_423)"/>
	<path d="M3.82237e-07 3.82237e-07L14.0001 14.0001L28.0001 3.82237e-07H3.82237e-07Z" fill="url(#paint3_linear_4_423)"/>
	<path d="M56 0L41.9999 14.0001L56 28.0001V0Z" fill="url(#paint4_linear_4_423)"/>
	<path d="M41.9999 14.0001L28.0001 3.82237e-07V28.0001L41.9999 14.0001Z" fill="url(#paint5_linear_4_423)"/>
	<path d="M28.0001 28.0001L41.9999 42.0002L56 28.0001H28.0001Z" fill="url(#paint6_linear_4_423)"/>
	<path d="M56 56L41.9999 42.0002L28.0001 56L56 56Z" fill="url(#paint7_linear_4_423)"/>
	<defs>
		<linearGradient id="paint0_linear_4_423" x1="5.0979" y1="5.81818" x2="18.8232" y2="53.385" gradientUnits="userSpaceOnUse">
			<stop stop-color="#FFC328"/>
			<stop offset="1" stop-color="#E63700"/>
		</linearGradient>
		<linearGradient id="paint1_linear_4_423" x1="5.0979" y1="5.81818" x2="18.8232" y2="53.385" gradientUnits="userSpaceOnUse">
			<stop stop-color="#FFC328"/>
			<stop offset="1" stop-color="#E63700"/>
		</linearGradient>
		<linearGradient id="paint2_linear_4_423" x1="5.0979" y1="5.81818" x2="18.8232" y2="53.385" gradientUnits="userSpaceOnUse">
			<stop stop-color="#FFC328"/>
			<stop offset="1" stop-color="#E63700"/>
		</linearGradient>
		<linearGradient id="paint3_linear_4_423" x1="5.0979" y1="5.81818" x2="18.8232" y2="53.385" gradientUnits="userSpaceOnUse">
			<stop stop-color="#FFC328"/>
			<stop offset="1" stop-color="#E63700"/>
		</linearGradient>
		<linearGradient id="paint4_linear_4_423" x1="5.0979" y1="5.81818" x2="18.8232" y2="53.385" gradientUnits="userSpaceOnUse">
			<stop stop-color="#FFC328"/>
			<stop offset="1" stop-color="#E63700"/>
		</linearGradient>
		<linearGradient id="paint5_linear_4_423" x1="5.0979" y1="5.81818" x2="18.8232" y2="53.385" gradientUnits="userSpaceOnUse">
			<stop stop-color="#FFC328"/>
			<stop offset="1" stop-color="#E63700"/>
		</linearGradient>
		<linearGradient id="paint6_linear_4_423" x1="5.0979" y1="5.81818" x2="18.8232" y2="53.385" gradientUnits="userSpaceOnUse">
			<stop stop-color="#FFC328"/>
			<stop offset="1" stop-color="#E63700"/>
		</linearGradient>
		<linearGradient id="paint7_linear_4_423" x1="5.0979" y1="5.81818" x2="18.8232" y2="53.385" gradientUnits="userSpaceOnUse">
			<stop stop-color="#FFC328"/>
			<stop offset="1" stop-color="#E63700"/>
		</linearGradient>
	</defs>
</svg>
