<svg viewBox="0 0 56 56" fill="none" xmlns="http://www.w3.org/2000/svg">
	<path d="M18.6667 37.3333V3.17708e-07C8.35719 3.17708e-07 3.17708e-07 8.35745 3.17708e-07 18.6667C3.17708e-07 28.9759 8.35719 37.3333 18.6667 37.3333Z" fill="url(#paint0_linear_4_417)"/>
	<path d="M37.3333 37.3333H0C0 47.6428 8.35745 56 18.6667 56C28.9759 56 37.3333 47.6428 37.3333 37.3333Z" fill="url(#paint1_linear_4_417)"/>
	<path d="M37.3333 18.6667V56C47.6428 56 56 47.6426 56 37.3333C56 27.0241 47.6428 18.6667 37.3333 18.6667Z" fill="url(#paint2_linear_4_417)"/>
	<path d="M18.6667 18.6667H56C56 8.35718 47.6426 0 37.3333 0C27.0241 0 18.6667 8.35718 18.6667 18.6667Z" fill="url(#paint3_linear_4_417)"/>
	<defs>
		<linearGradient id="paint0_linear_4_417" x1="5.0979" y1="5.81818" x2="18.8232" y2="53.385" gradientUnits="userSpaceOnUse">
		<stop stop-color="#FFC328"/>
		<stop offset="1" stop-color="#E63700"/>
		</linearGradient>
		<linearGradient id="paint1_linear_4_417" x1="5.0979" y1="5.81818" x2="18.8232" y2="53.385" gradientUnits="userSpaceOnUse">
		<stop stop-color="#FFC328"/>
		<stop offset="1" stop-color="#E63700"/>
		</linearGradient>
		<linearGradient id="paint2_linear_4_417" x1="5.0979" y1="5.81818" x2="18.8232" y2="53.385" gradientUnits="userSpaceOnUse">
		<stop stop-color="#FFC328"/>
		<stop offset="1" stop-color="#E63700"/>
		</linearGradient>
		<linearGradient id="paint3_linear_4_417" x1="5.0979" y1="5.81818" x2="18.8232" y2="53.385" gradientUnits="userSpaceOnUse">
		<stop stop-color="#FFC328"/>
		<stop offset="1" stop-color="#E63700"/>
		</linearGradient>
	</defs>
</svg>
