<svg viewBox="0 0 58 58" fill="none" xmlns="http://www.w3.org/2000/svg">
<circle cx="29" cy="29" r="28.1087" fill="url(#paint0_linear_4_433)" stroke="#F4F4F2" stroke-width="0.217476"/>
<mask id="path-2-outside-1_4_433" maskUnits="userSpaceOnUse" x="2.47236" y="6.45529" width="36.4808" height="33.1865" fill="black">
<rect fill="white" x="2.47236" y="6.45529" width="36.4808" height="33.1865"/>
<path d="M13.2384 38.1026C11.6464 35.3452 10.8056 32.2183 10.8001 29.0343C10.7945 25.8503 11.6244 22.7206 13.2067 19.9576C14.7891 17.1947 17.0686 14.8952 19.8177 13.2888C22.5668 11.6824 25.6891 10.8253 28.8731 10.803L29 29.0026L13.2384 38.1026Z"/>
</mask>
<path d="M13.2384 38.1026C11.6464 35.3452 10.8056 32.2183 10.8001 29.0343C10.7945 25.8503 11.6244 22.7206 13.2067 19.9576C14.7891 17.1947 17.0686 14.8952 19.8177 13.2888C22.5668 11.6824 25.6891 10.8253 28.8731 10.803L29 29.0026L13.2384 38.1026Z" fill="white"/>
<path d="M13.2384 38.1026C11.6464 35.3452 10.8056 32.2183 10.8001 29.0343C10.7945 25.8503 11.6244 22.7206 13.2067 19.9576C14.7891 17.1947 17.0686 14.8952 19.8177 13.2888C22.5668 11.6824 25.6891 10.8253 28.8731 10.803L29 29.0026L13.2384 38.1026Z" stroke="url(#paint1_linear_4_433)" stroke-width="1.95728" mask="url(#path-2-outside-1_4_433)"/>
<mask id="path-3-outside-2_4_433" maskUnits="userSpaceOnUse" x="9.74757" y="22.5634" width="36.4808" height="33.1865" fill="black">
<rect fill="white" x="9.74757" y="22.5634" width="36.4808" height="33.1865"/>
<path d="M44.6921 38.2231C43.0773 40.9712 40.7692 43.247 37.9986 44.8228C35.2279 46.3986 32.0921 47.2191 28.9047 47.2024C25.7174 47.1856 22.5904 46.332 19.8365 44.7271C17.0827 43.1221 14.7986 40.8221 13.2129 38.0572L29.0006 29.0026L44.6921 38.2231Z"/>
</mask>
<path d="M44.6921 38.2231C43.0773 40.9712 40.7692 43.247 37.9986 44.8228C35.2279 46.3986 32.0921 47.2191 28.9047 47.2024C25.7174 47.1856 22.5904 46.332 19.8365 44.7271C17.0827 43.1221 14.7986 40.8221 13.2129 38.0572L29.0006 29.0026L44.6921 38.2231Z" fill="white"/>
<path d="M44.6921 38.2231C43.0773 40.9712 40.7692 43.247 37.9986 44.8228C35.2279 46.3986 32.0921 47.2191 28.9047 47.2024C25.7174 47.1856 22.5904 46.332 19.8365 44.7271C17.0827 43.1221 14.7986 40.8221 13.2129 38.0572L29.0006 29.0026L44.6921 38.2231Z" stroke="url(#paint2_linear_4_433)" stroke-width="1.95728" mask="url(#path-3-outside-2_4_433)"/>
<mask id="path-4-outside-3_4_433" maskUnits="userSpaceOnUse" x="27.8008" y="9.80176" width="21" height="30" fill="black">
<rect fill="white" x="27.8008" y="9.80176" width="21" height="30"/>
<path d="M29.0008 10.8018C32.1885 10.8018 35.3203 11.639 38.0828 13.2297C40.8453 14.8205 43.1415 17.1088 44.7417 19.8659C46.3418 22.6229 47.1898 25.7518 47.2007 28.9396C47.2116 32.1273 46.385 35.2619 44.8037 38.0298L29.0008 29.0018V10.8018Z"/>
</mask>
<path d="M29.0008 10.8018C32.1885 10.8018 35.3203 11.639 38.0828 13.2297C40.8453 14.8205 43.1415 17.1088 44.7417 19.8659C46.3418 22.6229 47.1898 25.7518 47.2007 28.9396C47.2116 32.1273 46.385 35.2619 44.8037 38.0298L29.0008 29.0018V10.8018Z" fill="white"/>
<path d="M29.0008 10.8018C32.1885 10.8018 35.3203 11.639 38.0828 13.2297C40.8453 14.8205 43.1415 17.1088 44.7417 19.8659C46.3418 22.6229 47.1898 25.7518 47.2007 28.9396C47.2116 32.1273 46.385 35.2619 44.8037 38.0298L29.0008 29.0018V10.8018Z" stroke="url(#paint3_linear_4_433)" stroke-width="1.95728" mask="url(#path-4-outside-3_4_433)"/>
<defs>
<linearGradient id="paint0_linear_4_433" x1="6.0979" y1="6.81818" x2="63.0205" y2="92.3008" gradientUnits="userSpaceOnUse">
<stop stop-color="#FFC328"/>
<stop offset="1" stop-color="#E63700"/>
</linearGradient>
<linearGradient id="paint1_linear_4_433" x1="32.4998" y1="29" x2="21.6782" y2="17.901" gradientUnits="userSpaceOnUse">
<stop stop-color="#FFC328"/>
<stop offset="1" stop-color="#E63700"/>
</linearGradient>
<linearGradient id="paint2_linear_4_433" x1="22.5002" y1="29.5001" x2="24.4074" y2="42.0463" gradientUnits="userSpaceOnUse">
<stop stop-color="#FFC328"/>
<stop offset="1" stop-color="#E63700"/>
</linearGradient>
<linearGradient id="paint3_linear_4_433" x1="25.5002" y1="31.5" x2="42.2096" y2="23.785" gradientUnits="userSpaceOnUse">
<stop stop-color="#FFC328"/>
<stop offset="1" stop-color="#E63700"/>
</linearGradient>
</defs>
</svg>
