<svg width="96" height="96" viewBox="0 0 96 96" fill="none" xmlns="http://www.w3.org/2000/svg">
<path d="M46.7457 57.5365L44.1383 96L39.3094 95.3642L46.7457 57.5365Z" fill="url(#paint0_linear_4_371)"/>
<path d="M49.2565 38.4635L51.8639 0L56.6928 0.635848L49.2565 38.4635Z" fill="url(#paint1_linear_4_371)"/>
<path d="M49.2565 57.5365L56.6928 95.3642L51.8643 96L49.2565 57.5365Z" fill="url(#paint2_linear_4_371)"/>
<path d="M46.7457 38.4635L39.3094 0.635848L44.1379 0L46.7457 38.4635Z" fill="url(#paint3_linear_4_371)"/>
<path d="M51.6817 56.8864L68.6553 91.5009L64.1558 93.3645L51.6817 56.8864Z" fill="url(#paint4_linear_4_371)"/>
<path d="M44.3203 39.1136L27.3466 4.49907L31.8461 2.63548L44.3203 39.1136Z" fill="url(#paint5_linear_4_371)"/>
<path d="M53.8564 55.631L79.2108 84.6728L75.3471 87.6377L53.8564 55.631Z" fill="url(#paint6_linear_4_371)"/>
<path d="M42.1448 40.369L16.7904 11.3272L20.6541 8.3623L42.1448 40.369Z" fill="url(#paint7_linear_4_371)"/>
<path d="M55.6306 53.8553L87.6377 75.3456L84.6728 79.2093L55.6306 53.8553Z" fill="url(#paint8_linear_4_371)"/>
<path d="M40.3681 42.1447L8.36098 20.6544L11.3259 16.7903L40.3681 42.1447Z" fill="url(#paint9_linear_4_371)"/>
<path d="M56.8886 51.6807L93.3672 64.1549L91.5036 68.6544L56.8886 51.6807Z" fill="url(#paint10_linear_4_371)"/>
<path d="M39.116 44.3189L2.6374 31.8451L4.50099 27.3456L39.116 44.3189Z" fill="url(#paint11_linear_4_371)"/>
<path d="M57.5371 49.2554L96.001 51.8632L95.3652 56.6917L57.5371 49.2554Z" fill="url(#paint12_linear_4_371)"/>
<path d="M38.464 46.7442L0 44.1368L0.635848 39.3083L38.464 46.7442Z" fill="url(#paint13_linear_4_371)"/>
<path d="M57.5371 46.7446L95.3652 39.3083L96.001 44.1368L57.5371 46.7446Z" fill="url(#paint14_linear_4_371)"/>
<path d="M38.464 49.2554L0.635848 56.6917L0 51.8632L38.464 49.2554Z" fill="url(#paint15_linear_4_371)"/>
<path d="M56.8886 44.3193L91.5032 27.3456L93.3672 31.8451L56.8886 44.3193Z" fill="url(#paint16_linear_4_371)"/>
<path d="M39.116 51.6807L4.50141 68.6544L2.6374 64.1545L39.116 51.6807Z" fill="url(#paint17_linear_4_371)"/>
<path d="M55.6313 42.1447L84.6735 16.7907L87.638 20.6544L55.6313 42.1447Z" fill="url(#paint18_linear_4_371)"/>
<path d="M40.3684 53.8553L11.3262 79.2093L8.36166 75.3456L40.3684 53.8553Z" fill="url(#paint19_linear_4_371)"/>
<path d="M53.8564 40.369L75.3467 8.3623L79.2108 11.3272L53.8564 40.369Z" fill="url(#paint20_linear_4_371)"/>
<path d="M42.1448 55.631L20.6545 87.6373L16.7904 84.6728L42.1448 55.631Z" fill="url(#paint21_linear_4_371)"/>
<path d="M51.6817 39.1136L64.1558 2.63548L68.6553 4.49907L51.6817 39.1136Z" fill="url(#paint22_linear_4_371)"/>
<path d="M44.3203 56.8864L31.8461 93.3645L27.3466 91.5005L44.3203 56.8864Z" fill="url(#paint23_linear_4_371)"/>
<defs>
<linearGradient id="paint0_linear_4_371" x1="8.73934" y1="9.97403" x2="32.2682" y2="91.5173" gradientUnits="userSpaceOnUse">
<stop stop-color="#FFC328"/>
<stop offset="1" stop-color="#E63700"/>
</linearGradient>
<linearGradient id="paint1_linear_4_371" x1="8.73934" y1="9.97403" x2="32.2682" y2="91.5173" gradientUnits="userSpaceOnUse">
<stop stop-color="#FFC328"/>
<stop offset="1" stop-color="#E63700"/>
</linearGradient>
<linearGradient id="paint2_linear_4_371" x1="8.73934" y1="9.97403" x2="32.2682" y2="91.5173" gradientUnits="userSpaceOnUse">
<stop stop-color="#FFC328"/>
<stop offset="1" stop-color="#E63700"/>
</linearGradient>
<linearGradient id="paint3_linear_4_371" x1="8.73934" y1="9.97403" x2="32.2682" y2="91.5173" gradientUnits="userSpaceOnUse">
<stop stop-color="#FFC328"/>
<stop offset="1" stop-color="#E63700"/>
</linearGradient>
<linearGradient id="paint4_linear_4_371" x1="8.73934" y1="9.97403" x2="32.2682" y2="91.5173" gradientUnits="userSpaceOnUse">
<stop stop-color="#FFC328"/>
<stop offset="1" stop-color="#E63700"/>
</linearGradient>
<linearGradient id="paint5_linear_4_371" x1="8.73934" y1="9.97403" x2="32.2682" y2="91.5173" gradientUnits="userSpaceOnUse">
<stop stop-color="#FFC328"/>
<stop offset="1" stop-color="#E63700"/>
</linearGradient>
<linearGradient id="paint6_linear_4_371" x1="8.73934" y1="9.97403" x2="32.2682" y2="91.5173" gradientUnits="userSpaceOnUse">
<stop stop-color="#FFC328"/>
<stop offset="1" stop-color="#E63700"/>
</linearGradient>
<linearGradient id="paint7_linear_4_371" x1="8.73934" y1="9.97403" x2="32.2682" y2="91.5173" gradientUnits="userSpaceOnUse">
<stop stop-color="#FFC328"/>
<stop offset="1" stop-color="#E63700"/>
</linearGradient>
<linearGradient id="paint8_linear_4_371" x1="8.73934" y1="9.97403" x2="32.2682" y2="91.5173" gradientUnits="userSpaceOnUse">
<stop stop-color="#FFC328"/>
<stop offset="1" stop-color="#E63700"/>
</linearGradient>
<linearGradient id="paint9_linear_4_371" x1="8.73934" y1="9.97403" x2="32.2682" y2="91.5173" gradientUnits="userSpaceOnUse">
<stop stop-color="#FFC328"/>
<stop offset="1" stop-color="#E63700"/>
</linearGradient>
<linearGradient id="paint10_linear_4_371" x1="8.73934" y1="9.97403" x2="32.2682" y2="91.5173" gradientUnits="userSpaceOnUse">
<stop stop-color="#FFC328"/>
<stop offset="1" stop-color="#E63700"/>
</linearGradient>
<linearGradient id="paint11_linear_4_371" x1="8.73934" y1="9.97403" x2="32.2682" y2="91.5173" gradientUnits="userSpaceOnUse">
<stop stop-color="#FFC328"/>
<stop offset="1" stop-color="#E63700"/>
</linearGradient>
<linearGradient id="paint12_linear_4_371" x1="8.73934" y1="9.97403" x2="32.2682" y2="91.5173" gradientUnits="userSpaceOnUse">
<stop stop-color="#FFC328"/>
<stop offset="1" stop-color="#E63700"/>
</linearGradient>
<linearGradient id="paint13_linear_4_371" x1="8.73934" y1="9.97403" x2="32.2682" y2="91.5173" gradientUnits="userSpaceOnUse">
<stop stop-color="#FFC328"/>
<stop offset="1" stop-color="#E63700"/>
</linearGradient>
<linearGradient id="paint14_linear_4_371" x1="8.73934" y1="9.97403" x2="32.2682" y2="91.5173" gradientUnits="userSpaceOnUse">
<stop stop-color="#FFC328"/>
<stop offset="1" stop-color="#E63700"/>
</linearGradient>
<linearGradient id="paint15_linear_4_371" x1="8.73934" y1="9.97403" x2="32.2682" y2="91.5173" gradientUnits="userSpaceOnUse">
<stop stop-color="#FFC328"/>
<stop offset="1" stop-color="#E63700"/>
</linearGradient>
<linearGradient id="paint16_linear_4_371" x1="8.73934" y1="9.97403" x2="32.2682" y2="91.5173" gradientUnits="userSpaceOnUse">
<stop stop-color="#FFC328"/>
<stop offset="1" stop-color="#E63700"/>
</linearGradient>
<linearGradient id="paint17_linear_4_371" x1="8.73934" y1="9.97403" x2="32.2682" y2="91.5173" gradientUnits="userSpaceOnUse">
<stop stop-color="#FFC328"/>
<stop offset="1" stop-color="#E63700"/>
</linearGradient>
<linearGradient id="paint18_linear_4_371" x1="8.73934" y1="9.97403" x2="32.2682" y2="91.5173" gradientUnits="userSpaceOnUse">
<stop stop-color="#FFC328"/>
<stop offset="1" stop-color="#E63700"/>
</linearGradient>
<linearGradient id="paint19_linear_4_371" x1="8.73934" y1="9.97403" x2="32.2682" y2="91.5173" gradientUnits="userSpaceOnUse">
<stop stop-color="#FFC328"/>
<stop offset="1" stop-color="#E63700"/>
</linearGradient>
<linearGradient id="paint20_linear_4_371" x1="8.73934" y1="9.97403" x2="32.2682" y2="91.5173" gradientUnits="userSpaceOnUse">
<stop stop-color="#FFC328"/>
<stop offset="1" stop-color="#E63700"/>
</linearGradient>
<linearGradient id="paint21_linear_4_371" x1="8.73934" y1="9.97403" x2="32.2682" y2="91.5173" gradientUnits="userSpaceOnUse">
<stop stop-color="#FFC328"/>
<stop offset="1" stop-color="#E63700"/>
</linearGradient>
<linearGradient id="paint22_linear_4_371" x1="8.73934" y1="9.97403" x2="32.2682" y2="91.5173" gradientUnits="userSpaceOnUse">
<stop stop-color="#FFC328"/>
<stop offset="1" stop-color="#E63700"/>
</linearGradient>
<linearGradient id="paint23_linear_4_371" x1="8.73934" y1="9.97403" x2="32.2682" y2="91.5173" gradientUnits="userSpaceOnUse">
<stop stop-color="#FFC328"/>
<stop offset="1" stop-color="#E63700"/>
</linearGradient>
</defs>
</svg>
