<svg width="98" height="96" viewBox="0 0 98 96" fill="none" xmlns="http://www.w3.org/2000/svg">
<path d="M65.7731 63.9998H97.7732V96L65.7731 63.9998Z" fill="url(#paint0_linear_4_381)"/>
<path d="M65.7731 32.0002H97.7732V63.9998L65.7731 32.0002Z" fill="url(#paint1_linear_4_381)"/>
<path d="M65.7731 0H97.7732V32.0002L65.7731 0Z" fill="url(#paint2_linear_4_381)"/>
<path d="M32.0002 63.9998H64.0003V96L32.0002 63.9998Z" fill="url(#paint3_linear_4_381)"/>
<path d="M32.0002 32.0002H64.0003V63.9998L32.0002 32.0002Z" fill="url(#paint4_linear_4_381)"/>
<path d="M32.0002 0H64.0003V32.0002L32.0002 0Z" fill="url(#paint5_linear_4_381)"/>
<path d="M0.378046 63.9998H32.3782V96L0.378046 63.9998Z" fill="url(#paint6_linear_4_381)"/>
<path d="M0 32.0002H32.0002V63.9998L0 32.0002Z" fill="url(#paint7_linear_4_381)"/>
<path d="M0 0H32.0002V32.0002L0 0Z" fill="url(#paint8_linear_4_381)"/>
<defs>
<linearGradient id="paint0_linear_4_381" x1="8.90067" y1="9.97403" x2="32.0671" y2="91.7431" gradientUnits="userSpaceOnUse">
<stop stop-color="#FFC328"/>
<stop offset="1" stop-color="#E63700"/>
</linearGradient>
<linearGradient id="paint1_linear_4_381" x1="8.90067" y1="9.97403" x2="32.0671" y2="91.7431" gradientUnits="userSpaceOnUse">
<stop stop-color="#FFC328"/>
<stop offset="1" stop-color="#E63700"/>
</linearGradient>
<linearGradient id="paint2_linear_4_381" x1="8.90067" y1="9.97403" x2="32.0671" y2="91.7431" gradientUnits="userSpaceOnUse">
<stop stop-color="#FFC328"/>
<stop offset="1" stop-color="#E63700"/>
</linearGradient>
<linearGradient id="paint3_linear_4_381" x1="8.90067" y1="9.97403" x2="32.0671" y2="91.7431" gradientUnits="userSpaceOnUse">
<stop stop-color="#FFC328"/>
<stop offset="1" stop-color="#E63700"/>
</linearGradient>
<linearGradient id="paint4_linear_4_381" x1="8.90067" y1="9.97403" x2="32.0671" y2="91.7431" gradientUnits="userSpaceOnUse">
<stop stop-color="#FFC328"/>
<stop offset="1" stop-color="#E63700"/>
</linearGradient>
<linearGradient id="paint5_linear_4_381" x1="8.90067" y1="9.97403" x2="32.0671" y2="91.7431" gradientUnits="userSpaceOnUse">
<stop stop-color="#FFC328"/>
<stop offset="1" stop-color="#E63700"/>
</linearGradient>
<linearGradient id="paint6_linear_4_381" x1="8.90067" y1="9.97403" x2="32.0671" y2="91.7431" gradientUnits="userSpaceOnUse">
<stop stop-color="#FFC328"/>
<stop offset="1" stop-color="#E63700"/>
</linearGradient>
<linearGradient id="paint7_linear_4_381" x1="8.90067" y1="9.97403" x2="32.0671" y2="91.7431" gradientUnits="userSpaceOnUse">
<stop stop-color="#FFC328"/>
<stop offset="1" stop-color="#E63700"/>
</linearGradient>
<linearGradient id="paint8_linear_4_381" x1="8.90067" y1="9.97403" x2="32.0671" y2="91.7431" gradientUnits="userSpaceOnUse">
<stop stop-color="#FFC328"/>
<stop offset="1" stop-color="#E63700"/>
</linearGradient>
</defs>
</svg>
